<svg
    xmlns="http://www.w3.org/2000/svg"
    viewBox="0 0 161 103"
    id="vector">
    <defs>
        <clipPath id="clip_path_1">
            <path d="M 0 0.5 L 161 0.5 L 161 102.5 L 0 102.5 Z M 0 0"/>
        </clipPath>
        <clipPath id="clip_path_2">
            <path d="M 0 0.5 L 161 0.5 L 161 102.5 L 0 102.5 Z M 0 0"/>
        </clipPath>
        <clipPath id="clip_path_3">
            <path d="M 0 0.5 L 161 0.5 L 161 102.5 L 0 102.5 Z M 0 0"/>
        </clipPath>
        <clipPath id="clip_path_4">
            <path d="M 0 0.5 L 161 0.5 L 161 102.5 L 0 102.5 Z M 0 0"/>
        </clipPath>
        <clipPath id="clip_path_5">
            <path d="M 0 0.5 L 161 0.5 L 161 102.5 L 0 102.5 Z M 0 0"/>
        </clipPath>
        <clipPath id="clip_path_6">
            <path d="M 0 0.5 L 161 0.5 L 161 102.5 L 0 102.5 Z M 0 0"/>
        </clipPath>
        <clipPath id="clip_path_7">
            <path d="M 0 0.5 L 161 0.5 L 161 102.5 L 0 102.5 Z M 0 0"/>
        </clipPath>
        <clipPath id="clip_path_8">
            <path d="M 0 0.5 L 161 0.5 L 161 102.5 L 0 102.5 Z M 0 0"/>
        </clipPath>
        <clipPath id="clip_path_9">
            <path d="M 0 0.5 L 161 0.5 L 161 102.5 L 0 102.5 Z M 0 0"/>
        </clipPath>
        <clipPath id="clip_path_10">
            <path d="M 0 0.5 L 161 0.5 L 161 102.5 L 0 102.5 Z M 0 0"/>
        </clipPath>
        <clipPath id="clip_path_11">
            <path d="M 0 0.5 L 161 0.5 L 161 102.5 L 0 102.5 Z M 0 0"/>
        </clipPath>
        <clipPath id="clip_path_12">
            <path d="M 0 0.5 L 161 0.5 L 161 102.5 L 0 102.5 Z M 0 0"/>
        </clipPath>
        <clipPath id="clip_path_13">
            <path d="M 0 0.5 L 161 0.5 L 161 102.5 L 0 102.5 Z M 0 0"/>
        </clipPath>
        <clipPath id="clip_path_14">
            <path d="M 0 0.5 L 161 0.5 L 161 102.5 L 0 102.5 Z M 0 0"/>
        </clipPath>
        <clipPath id="clip_path_15">
            <path d="M 0 0.5 L 161 0.5 L 161 102.5 L 0 102.5 Z M 0 0"/>
        </clipPath>
        <clipPath id="clip_path_16">
            <path d="M 0 0.5 L 161 0.5 L 161 102.5 L 0 102.5 Z M 0 0"/>
        </clipPath>
        <clipPath id="clip_path_17">
            <path d="M 0 0.5 L 161 0.5 L 161 102.5 L 0 102.5 Z M 0 0"/>
        </clipPath>
        <clipPath id="clip_path_18">
            <path d="M 0 0.5 L 161 0.5 L 161 102.5 L 0 102.5 Z M 0 0"/>
        </clipPath>
        <clipPath id="clip_path_19">
            <path d="M 0 0.5 L 161 0.5 L 161 102.5 L 0 102.5 Z M 0 0"/>
        </clipPath>
        <clipPath id="clip_path_20">
            <path d="M 0 0.5 L 161 0.5 L 161 102.5 L 0 102.5 Z M 0 0"/>
        </clipPath>
        <clipPath id="clip_path_21">
            <path d="M 0 0.5 L 161 0.5 L 161 102.5 L 0 102.5 Z M 0 0"/>
        </clipPath>
        <clipPath id="clip_path_22">
            <path d="M 0 0.5 L 161 0.5 L 161 102.5 L 0 102.5 Z M 0 0"/>
        </clipPath>
    </defs>
    <path
        id="path"
        d="M 0 0.5 L 161 0.5 L 161 102.5 L 0 102.5 Z"
        fill="#f3f3f3"
        fill-rule="evenodd"/>
    <g id="group">
        <path
            id="path_1"
            clip-path="url(#clip_path_1)"
            d="M 66 103 C 66 84.775 80.551 70 98.5 70 C 116.449 70 131 84.775 131 103 L 66 103 Z"
            fill="#d7d5d5"
            fill-opacity="0.7"
            stroke-opacity="0.7"/>
        <path
            id="path_2"
            clip-path="url(#clip_path_2)"
            d="M 98.403 70 C 97.253 70 96.119 70.061 95 70.18 C 111.403 71.902 124.193 85.938 124.193 103 L 131 103 C 131 84.775 116.405 70 98.403 70 Z"
            fill="#bcbbbb"
            fill-opacity="0.7"
            stroke-opacity="0.7"/>
        <path
            id="path_3"
            clip-path="url(#clip_path_3)"
            d="M 77 103 C 77 90.85 86.625 81 98.5 81 C 110.373 81 120 90.85 120 103 L 77 103 Z"
            fill="#e6e6e6"
            fill-opacity="0.7"
            stroke-opacity="0.7"/>
        <path
            id="path_4"
            clip-path="url(#clip_path_4)"
            d="M 88 103 C 88 97.478 92.924 93 99 93 C 105.075 93 110 97.478 110 103 L 88 103 Z"
            fill="#ffffff"
            fill-opacity="0.7"
            stroke-opacity="0.7"/>
        <path
            id="path_5"
            clip-path="url(#clip_path_5)"
            d="M 99.23 93 C 98.137 92.999 97.049 93.153 96 93.459 C 100.368 94.733 103.538 98.522 103.538 103 L 110 103 C 110 97.478 105.178 93 99.23 93 Z"
            fill="#bcbbbb"
            fill-opacity="0.7"
            stroke-opacity="0.7"/>
        <path
            id="path_6"
            clip-path="url(#clip_path_6)"
            d="M 74.556 64.627 C 75.438 63.747 76.899 63.797 77.691 64.758 C 85.254 73.952 84.737 87.556 76.136 96.145 C 66.986 105.285 52.151 105.285 43 96.145 L 74.556 64.627 Z"
            fill="#d7d5d5"
            fill-opacity="0.7"
            stroke-opacity="0.7"/>
        <path
            id="path_7"
            clip-path="url(#clip_path_7)"
            d="M 82.623 75 C 82.065 80.19 79.829 85.23 75.903 89.207 C 72.143 93.039 67.168 95.45 61.831 96.026 C 56.494 96.603 51.118 95.31 46.627 92.369 L 43 96.043 C 45.889 98.987 49.511 101.109 53.491 102.189 C 57.472 103.27 61.67 103.27 65.651 102.189 C 69.631 101.109 73.253 98.987 76.142 96.043 C 81.788 90.32 83.946 82.404 82.623 75 Z"
            fill="#a8a8a8"
            fill-opacity="0.7"
            stroke-opacity="0.7"
            fill-rule="evenodd"/>
        <path
            id="path_8"
            clip-path="url(#clip_path_8)"
            d="M 68.397 70.588 C 73.201 75.392 73.201 82.594 68.397 87.398 C 63.592 92.201 55.804 92.201 51 87.398 L 68.397 70.588 Z"
            fill="#ffffff"
            fill-opacity="0.7"
            stroke-opacity="0.7"/>
        <path
            id="path_9"
            clip-path="url(#clip_path_9)"
            d="M 62.317 80.383 C 62.916 80.153 64.097 80.071 64.974 80.365 C 65.367 80.497 65.362 80.755 65.151 80.85 C 64.577 81.105 63.241 80.92 62.421 80.67 C 62.191 80.6 62.19 80.433 62.317 80.383 M 60.234 83.37 C 60.554 84.075 60.714 84.78 61.331 85.128 C 61.605 85.282 61.914 84.818 61.831 84.473 C 61.631 83.638 61.101 83.352 60.611 82.876 C 60.398 82.664 60.106 83.086 60.234 83.37 M 56.238 86.164 C 56.406 86.837 56.553 87.594 57.151 88.049 C 57.474 88.296 57.838 88.009 57.821 87.675 C 57.791 86.997 57.233 86.442 56.784 85.946 C 56.593 85.736 56.162 85.856 56.238 86.164 M 66.167 75.684 C 65.661 75.792 65.165 75.942 64.684 76.131 C 64.174 76.338 64.451 77.001 64.922 76.99 C 65.394 76.977 65.866 76.896 66.332 76.827 C 66.752 76.765 67.144 76.728 67.459 76.427 C 67.699 76.2 67.703 75.765 67.353 75.634 C 66.925 75.472 66.606 75.585 66.167 75.684"
            fill="#989898"
            fill-opacity="0.5"
            stroke-opacity="0.5"
            fill-rule="evenodd"/>
        <path
            id="path_10"
            clip-path="url(#clip_path_10)"
            d="M 20.895 95.118 C 21.912 95.27 22.901 95.566 23.835 95.996 C 25.169 98.273 27.209 98.679 26.128 97.02 C 24.224 91.332 24.742 84.87 27.695 79.608 C 28.905 77.453 30.55 75.076 29.717 72.758 C 28.932 70.568 26.071 69.596 23.775 70.218 C 21.479 70.841 19.723 72.654 18.427 74.602 C 19.164 72.544 17.539 70.131 15.361 69.627 C 13.183 69.123 10.821 70.289 9.597 72.113 C 8.371 73.937 8.16 76.277 8.603 78.413 C 9.046 80.549 10.088 82.521 11.221 84.401 C 8.474 83.383 5.035 85.616 4.946 88.475 C 4.849 91.61 8.096 93.947 11.258 94.555 C 14.419 95.161 17.71 94.64 20.895 95.118 Z"
            fill="#b6b6b6"
            fill-opacity="0.7"
            stroke-opacity="0.7"
            fill-rule="evenodd"/>
        <path
            id="path_11"
            clip-path="url(#clip_path_11)"
            d="M 9.08 87.662 C 12.248 87.601 15.456 87.55 18.611 87.265 C 18.624 87.265 18.633 87.258 18.645 87.255 C 19.562 88.444 20.612 89.524 21.775 90.474 C 21.915 90.588 22.085 90.4 21.964 90.272 C 21.169 89.443 20.425 88.567 19.734 87.65 C 19.416 83.714 20.202 80.618 22.924 77.5 C 22.984 77.432 22.894 77.32 22.816 77.379 C 20.086 79.406 18.448 83.146 18.921 86.502 C 16.422 82.753 15.216 78.704 14.949 73.864 C 14.92 73.354 14.167 73.416 14.14 73.904 C 13.904 78.222 15.478 82.867 18.145 86.581 C 15.116 86.723 12.075 87.07 9.066 87.406 C 8.896 87.425 8.906 87.664 9.079 87.662"
            fill="#ffffff"
            fill-opacity="0.7"
            stroke-opacity="0.7"
            fill-rule="evenodd"/>
        <path
            id="path_12"
            clip-path="url(#clip_path_12)"
            d="M 118.058 45.129 C 117.04 47.139 116.755 49.454 115.819 51.505 C 115.521 52.16 115.131 52.769 114.661 53.314 C 112.872 53.772 110.951 54.254 109.409 55.224 C 109.286 55.3 109.351 55.483 109.486 55.483 C 110.846 55.475 112.206 55.066 113.53 54.659 C 117.725 54.475 121.973 56.071 124.944 59.073 C 126.161 60.303 127.443 61.868 129.164 61.755 C 130.788 61.649 131.994 59.912 132.018 58.247 C 132.042 56.582 131.161 55.05 130.101 53.803 C 131.343 54.696 133.281 54.068 134.04 52.699 C 134.8 51.331 134.47 49.517 133.48 48.341 C 132.488 47.164 130.954 46.571 129.432 46.457 C 127.909 46.343 126.381 46.663 124.897 47.063 C 126.113 45.411 125.273 42.666 123.367 42.054 C 121.276 41.384 119.077 43.118 118.058 45.129"
            fill="#b6b6b6"
            fill-opacity="0.7"
            stroke-opacity="0.7"
            fill-rule="evenodd"/>
        <path
            id="path_13"
            clip-path="url(#clip_path_13)"
            d="M 123.116 44.993 C 122.546 47.137 121.961 49.305 121.544 51.483 C 121.542 51.493 121.545 51.499 121.544 51.508 C 120.556 51.905 119.62 52.401 118.774 52.993 C 118.671 53.066 118.764 53.216 118.874 53.159 C 119.614 52.771 120.344 52.442 121.069 52.165 C 123.779 52.71 125.71 53.836 127.283 56.27 C 127.317 56.322 127.41 56.284 127.385 56.22 C 126.548 53.992 124.347 52.168 121.998 51.839 C 125.002 50.881 127.96 50.851 131.268 51.604 C 131.617 51.684 131.72 51.164 131.398 51.053 C 128.538 50.06 125.108 50.223 122.095 51.301 C 122.583 49.236 122.937 47.122 123.291 45.033 C 123.311 44.915 123.148 44.876 123.116 44.993"
            fill="#ffffff"
            fill-opacity="0.7"
            stroke-opacity="0.7"
            fill-rule="evenodd"/>
        <path
            id="path_14"
            clip-path="url(#clip_path_14)"
            d="M 51 88.5 C 51 96.509 44.508 103 36.5 103 C 28.492 103 22 96.509 22 88.5 C 22 80.492 28.492 74 36.5 74 C 44.508 74 51 80.492 51 88.5 Z"
            fill="#d7d5d5"
            fill-opacity="0.7"
            stroke-opacity="0.7"/>
        <path
            id="path_15"
            clip-path="url(#clip_path_15)"
            d="M 44.96 77 C 46.68 79.417 47.603 82.312 47.599 85.279 C 47.599 93.188 41.187 99.599 33.279 99.599 C 30.193 99.599 27.339 98.619 25 96.959 C 27.595 100.614 31.858 103 36.68 103 C 44.588 103 51 96.59 51 88.68 C 50.999 83.857 48.612 79.594 44.96 77 Z"
            fill="#bcbbbb"
            fill-opacity="0.7"
            stroke-opacity="0.7"/>
        <path
            id="path_16"
            clip-path="url(#clip_path_16)"
            d="M 42 89 C 42 90.326 41.473 91.598 40.536 92.536 C 39.598 93.473 38.326 94 37 94 C 35.674 94 34.402 93.473 33.464 92.536 C 32.527 91.598 32 90.326 32 89 C 32 87.674 32.527 86.402 33.464 85.464 C 34.402 84.527 35.674 84 37 84 C 38.326 84 39.598 84.527 40.536 85.464 C 41.473 86.402 42 87.674 42 89 Z"
            fill="#ffffff"
            fill-opacity="0.7"
            stroke-opacity="0.7"/>
        <path
            id="path_17"
            clip-path="url(#clip_path_17)"
            d="M 115 103 C 115 89.746 125.52 79 138.5 79 C 151.478 79 162 89.746 162 103 L 115 103 Z"
            fill="#d7d5d5"
            fill-opacity="0.7"
            stroke-opacity="0.7"/>
        <path
            id="path_18"
            clip-path="url(#clip_path_18)"
            d="M 137.92 79 C 136.93 79 135.958 79.067 135 79.182 C 146.922 80.619 156.161 90.731 156.161 103 L 162 103 C 162 89.746 151.218 79 137.92 79 Z"
            fill="#a8a8a8"
            fill-opacity="0.7"
            stroke-opacity="0.7"
            fill-rule="evenodd"/>
        <path
            id="path_19"
            clip-path="url(#clip_path_19)"
            d="M 126 103 C 126 96.372 131.373 91 138 91 C 144.628 91 150 96.372 150 103 L 126 103 Z"
            fill="#ffffff"
            fill-opacity="0.7"
            stroke-opacity="0.7"/>
        <path
            id="path_20"
            clip-path="url(#clip_path_20)"
            d="M 102 49.5 C 102 57.508 95.508 64 87.5 64 C 79.492 64 73 57.508 73 49.5 C 73 41.491 79.492 35 87.5 35 C 95.508 35 102 41.491 102 49.5 Z"
            fill="#d7d5d5"
            fill-opacity="0.7"
            stroke-opacity="0.7"/>
        <path
            id="path_21"
            clip-path="url(#clip_path_21)"
            d="M 95.872 38 C 97.54 40.391 98.433 43.237 98.429 46.152 C 98.429 54.037 92.037 60.431 84.151 60.431 C 81.12 60.431 78.311 59.484 76 57.874 C 78.58 61.575 82.866 64 87.72 64 C 95.606 64 102 57.608 102 49.721 C 102 44.866 99.575 40.581 95.872 38 Z"
            fill="#bcbbbb"
            fill-opacity="0.7"
            stroke-opacity="0.7"/>
        <path
            id="path_22"
            clip-path="url(#clip_path_22)"
            d="M 92 49 C 92.015 50.065 91.689 51.108 91.071 51.975 C 90.452 52.843 89.572 53.49 88.56 53.822 C 87.547 54.154 86.455 54.154 85.442 53.822 C 84.43 53.49 83.55 52.843 82.931 51.976 C 82.312 51.109 81.986 50.066 82.001 49.001 C 82.019 47.688 82.555 46.433 83.49 45.511 C 84.425 44.589 85.687 44.071 87 44.071 C 88.313 44.071 89.575 44.588 90.511 45.51 C 91.446 46.432 91.981 47.687 92 49 Z"
            fill="#ffffff"
            fill-opacity="0.7"
            stroke-opacity="0.7"/>
    </g>
</svg>
